<?xml version="1.0" standalone="no"?>
<!DOCTYPE svg PUBLIC "-//W3C//DTD SVG 20010904//EN"
 "http://www.w3.org/TR/2001/REC-SVG-20010904/DTD/svg10.dtd">
<svg version="1.0" xmlns="http://www.w3.org/2000/svg"
 width="110.000000pt" height="70.000000pt" viewBox="0 0 110.000000 70.000000"
 preserveAspectRatio="xMidYMid meet">
<metadata>
Created by potrace 1.10, written by Peter Selinger 2001-2011
</metadata>
<g transform="translate(0.000000,70.000000) scale(0.100000,-0.100000)"
fill="#000000" stroke="none">
<path d="M117 422 c-5 -7 -8 -36 -7 -65 3 -67 0 -88 -9 -58 -8 28 -31 41 -31
17 0 -9 -7 -16 -15 -16 -8 0 -15 -7 -15 -15 0 -12 17 -15 94 -15 l93 0 1 55
c0 49 -2 55 -20 55 -17 0 -19 -6 -16 -37 1 -21 -1 -38 -7 -38 -5 0 -9 10 -7
23 2 18 -1 23 -15 20 -10 -2 -18 -10 -19 -18 -3 -42 -8 -28 -13 35 -4 43 -9
65 -14 57z"/>
<path d="M325 340 c0 -31 4 -40 17 -40 12 0 15 6 11 23 -5 20 -3 19 22 -8 30
-32 32 -31 37 28 3 30 1 37 -13 37 -13 0 -16 -6 -12 -22 l5 -23 -16 23 c-28
37 -51 29 -51 -18z"/>
<path d="M434 337 c-1 -41 0 -42 33 -42 21 0 33 5 33 13 0 9 -7 11 -20 7 -22
-7 -28 10 -7 19 10 5 10 7 0 12 -21 9 -15 26 7 19 11 -4 20 -2 20 4 0 6 -15
11 -32 11 -32 0 -33 -1 -34 -43z"/>
<path d="M516 353 c10 -48 13 -53 29 -53 9 0 15 9 16 23 l0 22 11 -22 c16 -34
36 -28 44 12 5 28 9 33 19 25 9 -8 14 -7 18 2 3 9 7 7 12 -6 5 -11 3 -27 -4
-37 -10 -17 -8 -19 12 -19 20 0 23 4 20 38 -2 20 0 31 3 25 8 -18 24 -16 24 2
0 12 -13 15 -61 15 -33 0 -58 -4 -55 -9 4 -5 3 -17 -1 -28 -6 -16 -8 -15 -13
6 -8 35 -24 36 -37 4 l-11 -28 -1 28 c-1 17 -7 27 -16 27 -12 0 -14 -7 -9 -27z"/>
<path d="M730 361 c-18 -35 18 -79 54 -65 22 8 31 51 16 69 -18 21 -57 19 -70
-4z m50 -27 c0 -26 -17 -33 -26 -9 -8 20 3 48 16 40 5 -3 10 -17 10 -31z"/>
<path d="M825 340 c0 -24 4 -40 11 -40 7 0 10 9 7 23 l-5 22 20 -22 c29 -33
39 -28 44 17 3 33 1 40 -15 40 -15 0 -16 -3 -7 -20 7 -12 7 -20 1 -20 -5 0
-13 9 -16 20 -3 11 -14 20 -23 20 -14 0 -17 -9 -17 -40z"/>
<path d="M925 340 c0 -33 3 -40 19 -40 16 0 17 3 8 12 -14 14 -16 28 -3 28 5
0 13 -9 16 -20 3 -11 15 -20 25 -20 14 0 19 9 22 40 3 34 1 40 -15 40 -14 0
-17 -5 -12 -22 l6 -23 -20 23 c-30 34 -46 28 -46 -18z"/>
<path d="M246 324 c-11 -28 -6 -54 9 -54 10 0 15 11 15 35 0 36 -13 47 -24 19z"/>
</g>
</svg>
